<svg width="34" height="34" viewBox="0 0 34 34" fill="none" xmlns="http://www.w3.org/2000/svg">
<path d="M33.9999 17.3738C33.9999 15.9761 33.8842 14.9561 33.6338 13.8984H17.3479V20.2069H26.9073C26.7147 21.7746 25.6739 24.1356 23.3611 25.7221L23.3287 25.9333L28.478 29.8426L28.8347 29.8775C32.1111 26.9121 33.9999 22.549 33.9999 17.3738Z" fill="white"/>
<path d="M17.348 33.9964C22.0314 33.9964 25.963 32.4853 28.8348 29.8788L23.3612 25.7234C21.8965 26.7245 19.9306 27.4233 17.348 27.4233C12.7611 27.4233 8.86792 24.458 7.48012 20.3594L7.2767 20.3763L1.92241 24.4372L1.85239 24.6279C4.70478 30.1809 10.5638 33.9964 17.348 33.9964Z" fill="white"/>
<path d="M7.48059 20.3567C7.11441 19.299 6.90249 18.1657 6.90249 16.9947C6.90249 15.8236 7.11441 14.6903 7.46133 13.6326L7.45163 13.4074L2.03024 9.28125L1.85286 9.36393C0.677253 11.6683 0.00268555 14.256 0.00268555 16.9947C0.00268555 19.7334 0.677253 22.3209 1.85286 24.6253L7.48059 20.3567Z" fill="white"/>
<path d="M17.348 6.57291C20.6052 6.57291 22.8022 7.95171 24.0551 9.10395L28.9504 4.41975C25.9439 1.68102 22.0314 0 17.348 0C10.5638 0 4.70478 3.81531 1.85239 9.36828L7.46085 13.637C8.86792 9.53833 12.7611 6.57291 17.348 6.57291Z" fill="white"/>
</svg>
