<svg width="34" height="34" viewBox="0 0 34 34" fill="none" xmlns="http://www.w3.org/2000/svg">
<path d="M28.5536 16.4116C29.0779 17.234 29.2992 19.8229 29.1172 21.5415C29.053 22.1084 28.9481 22.5817 28.7953 22.864C28.5855 23.2545 28.2335 23.4865 27.8318 23.501C27.5738 23.5137 27.4136 23.4709 22.5684 21.9462C22.5684 21.9462 20.4153 21.2736 20.4065 21.2693C19.8692 21.1353 19.508 20.6523 19.4734 20.0353C19.4382 19.4026 19.7719 18.8441 20.3219 18.6419C20.3219 18.6419 21.8405 18.0361 21.8434 18.0361C27.0498 15.9343 27.2842 15.8519 27.5463 15.849C27.9483 15.8331 28.3047 16.0312 28.5536 16.4116ZM16.9066 32.0719C16.822 31.8324 16.812 31.6687 16.7972 26.6869C16.7972 26.6869 16.7857 24.4856 16.7842 24.4642C16.7493 23.9242 17.1061 23.4324 17.6898 23.2131C18.2912 22.9864 18.9391 23.1264 19.3029 23.5692C19.3029 23.5692 20.3657 24.8032 20.3686 24.8032C24.0157 28.9967 24.1685 29.1905 24.2575 29.4387C24.3123 29.5847 24.3322 29.7411 24.3157 29.8958C24.2938 30.1185 24.1904 30.3378 24.0201 30.5429C23.1743 31.5264 19.1182 32.9866 17.8225 32.7702C17.3723 32.6904 17.0452 32.4425 16.9066 32.0719ZM8.6779 30.3378C7.45492 29.8605 4.78759 26.5388 4.59992 25.2606C4.5343 24.816 4.67675 24.4327 4.99003 24.1877C5.19544 24.0367 5.3512 23.9782 10.1935 22.4223C10.1935 22.4223 12.3176 21.7353 12.3451 21.7223C12.8593 21.5273 13.446 21.7084 13.8405 22.1842C14.2511 22.6731 14.3122 23.3184 13.9845 23.8058L13.13 25.1683C10.2561 29.7364 10.0362 30.0598 9.82936 30.218C9.50928 30.4645 9.10142 30.5044 8.6779 30.3378ZM11.1806 18.5762C5.67748 17.271 5.46469 17.2025 5.24776 17.063C4.91438 16.8435 4.7468 16.4758 4.77606 16.0283C4.77606 16.0142 4.7731 15.9985 4.77606 15.9829C4.91733 14.6604 7.28468 11.2207 8.45062 10.6622C8.86439 10.4683 9.27756 10.4811 9.62099 10.7061C9.83379 10.8415 9.98954 11.0469 12.9365 14.991C12.9365 14.991 14.267 16.7651 14.283 16.7822C14.6338 17.1999 14.6397 17.7984 14.296 18.3112C13.9407 18.8426 13.3411 19.1021 12.7908 18.9525C12.7908 18.9525 12.8126 18.991 12.8182 18.9979C12.5475 18.8981 12.0628 18.7816 11.1806 18.5762ZM16.7041 14.129C16.7987 11.9942 17.4554 2.49008 17.5325 2.04982C17.6431 1.65063 17.962 1.3657 18.4192 1.25318C19.8242 0.91271 25.1935 2.3845 26.188 3.38912C26.5081 3.71541 26.626 4.11721 26.5299 4.47358C26.3727 4.78859 19.7208 15.0324 19.7208 15.0324C18.7381 16.5927 17.9357 16.3506 17.6723 16.2693C17.4117 16.1909 16.614 15.9488 16.7041 14.129Z" fill="white"/>
</svg>
